<svg width="20" height="30" viewBox="0 0 19 20" fill="lila" xmlns="http://www.w3.org/2000/svg">
<path d="M4.00001 19.7146C3.37144 19.7146 2.83354 19.5096 2.3863 19.0996C1.9383 18.6889 1.7143 18.1955 1.7143 17.6193V4.00028H0.571442V1.90504H6.28573V0.857422H13.1429V1.90504H18.8572V4.00028H17.7143V17.6193C17.7143 18.1955 17.4907 18.6889 17.0434 19.0996C16.5954 19.5096 16.0572 19.7146 15.4286 19.7146H4.00001ZM15.4286 4.00028H4.00001V17.6193H15.4286V4.00028ZM6.28573 15.5241H8.57144V6.09552H6.28573V15.5241ZM10.8572 15.5241H13.1429V6.09552H10.8572V15.5241ZM4.00001 4.00028V17.6193V4.00028Z" fill="#F5F5F5"/>
</svg>
