<svg width="21" height="20" viewBox="0 0 21 20" fill="none" xmlns="http://www.w3.org/2000/svg">
<path d="M2.1 20C1.5225 20 1.0283 19.7554 0.6174 19.2663C0.2058 18.7763 0 18.1875 0 17.5V2.5C0 1.8125 0.2058 1.22417 0.6174 0.735C1.0283 0.245 1.5225 0 2.1 0H7.35V2.5H2.1V17.5H18.9V2.5H13.65V0H18.9C19.4775 0 19.972 0.245 20.3836 0.735C20.7945 1.22417 21 1.8125 21 2.5V17.5C21 18.1875 20.7945 18.7763 20.3836 19.2663C19.972 19.7554 19.4775 20 18.9 20H2.1ZM10.5 14.25L5.25 8L6.72 6.25L9.45 9.5V0H11.55V9.5L14.28 6.25L15.75 8L10.5 14.25Z" fill="#BDBBBE"/>
</svg>
