<svg id="Layer_1" data-name="Layer 1" xmlns="http://www.w3.org/2000/svg" viewBox="0 0 600 168.94"><defs><style>.cls-1{fill:#132968;}.cls-2{fill:#f96b6b;}</style></defs><title>OMIO_blue</title><path class="cls-1" d="M443.7,38.21H407.38a2,2,0,0,0-2,2v123.4a2,2,0,0,0,2,2H443.7a2,2,0,0,0,2-2V40.23a2,2,0,0,0-2-2" transform="translate(0)"/><path class="cls-1" d="M529.44,132.37c-19.31,0-29.51-14.31-29.51-30.44,0-16.4,10.2-30.45,29.51-30.45s29.76,14,29.76,30.45c0,16.13-10.45,30.44-29.76,30.44m0-97.45c-40.74,0-70.31,28.18-70.31,67s29.57,67,70.31,67c41.55,0,70.56-27.55,70.56-67s-29-67-70.56-67" transform="translate(0)"/><path class="cls-1" d="M388.81,90c0-31.92-24.32-55.09-57.84-55.09-15.49,0-28.71,7.12-35.55,14.44a2.66,2.66,0,0,1-3.91,0c-6.67-7.3-19.9-14.41-35.73-14.41-33.4,0-57.65,23.17-57.65,55.09v73.62a2,2,0,0,0,2,2h36.46a2,2,0,0,0,2-2v-72c0-9.41,5.89-18.93,17.16-18.93,11.52,0,17.55,9.52,17.55,18.93v72a2,2,0,0,0,2,2H311.8a2,2,0,0,0,2-2v-72c0-9.41,5.88-18.93,17.15-18.93,11.53,0,17.55,9.52,17.55,18.93v72a2,2,0,0,0,2,2H386.8a2,2,0,0,0,2-2Z" transform="translate(0)"/><path class="cls-1" d="M116.35,132.37c-19.31,0-29.75-14.31-29.75-30.44,0-16.4,10.44-30.45,29.75-30.45s29.51,14,29.51,30.45c0,16.13-10.2,30.44-29.51,30.44m0-97.45c-41.54,0-70.56,27.55-70.56,67s29,67,70.56,67c40.74,0,70.31-28.18,70.31-67s-29.57-67-70.31-67" transform="translate(0)"/><path class="cls-2" d="M30,0A29,29,0,0,1,59.15,26.69,29.42,29.42,0,0,1,32.31,58.4c-.89.08-1.78.12-2.66.12A29.49,29.49,0,0,1,.12,31.85C-1.31,15.51,10.59,1.57,27.21.12,28.13,0,29.05,0,30,0" transform="translate(0)"/></svg>