<?xml version="1.0" encoding="utf-8"?>
<!-- Generator: Adobe Illustrator 22.0.0, SVG Export Plug-In . SVG Version: 6.00 Build 0)  -->
<svg version="1.1" id="Layer_1" xmlns="http://www.w3.org/2000/svg" xmlns:xlink="http://www.w3.org/1999/xlink" x="0px" y="0px"
	 width="338.004px" height="78.075px" viewBox="0 0 338.004 78.075" enable-background="new 0 0 338.004 78.075"
	 xml:space="preserve">
<g>
	<path fill="#292A30" d="M120.399,26.413c-5.899,0-11.165,2.712-14.611,6.937c-3.447-4.225-8.713-6.937-14.611-6.937
		c-3.86,0-7.449,1.161-10.437,3.146v-3.146H72.39v18.606v31.49h8.349v-31.49c0-5.656,4.682-10.256,10.437-10.256
		s10.437,4.601,10.437,10.256v31.49h8.349v-31.49c0-5.656,4.682-10.256,10.437-10.256s10.437,4.601,10.437,10.256v31.49h8.349
		v-31.49C139.185,34.76,130.758,26.413,120.399,26.413z"/>
	<path fill="#292A30" d="M168.408,26.413c-13.236,0-24.004,11.471-24.004,25.57s10.768,25.57,24.004,25.57
		c13.236,0,24.004-11.471,24.004-25.57S181.644,26.413,168.408,26.413z M168.408,69.204c-8.632,0-15.655-7.725-15.655-17.221
		s7.023-17.221,15.655-17.221c8.632,0,15.655,7.725,15.655,17.221S177.04,69.204,168.408,69.204z"/>
	<path fill="#292A30" d="M221.113,26.413c-13.236,0-24.004,11.471-24.004,25.57s10.769,25.57,24.004,25.57
		c13.236,0,24.004-11.471,24.004-25.57S234.349,26.413,221.113,26.413z M221.113,69.204c-8.632,0-15.655-7.725-15.655-17.221
		s7.023-17.221,15.655-17.221s15.655,7.725,15.655,17.221S229.745,69.204,221.113,69.204z"/>
	<rect x="299.91" y="27.457" fill="#292A30" width="8.349" height="49.052"/>
	<path fill="#292A30" d="M338.004,35.806v-8.349H325.48V14.933h-8.349v44.878c0,9.208,7.491,16.699,16.698,16.699h4.175V68.16
		h-4.175c-4.604,0-8.349-3.746-8.349-8.349V35.806H338.004z"/>
	<polygon fill="#292A30" points="268.6,63.341 252.408,27.457 243.248,27.457 265.382,76.509 271.818,76.509 293.952,27.457 
		284.791,27.457 	"/>
	<circle fill="#292A30" cx="304.085" cy="18.586" r="4.697"/>
</g>
<g>
	<g>
		<path fill="#F05523" d="M31.21,0C13.973,0,0,13.982,0,31.23c0,23.422,31.21,46.845,31.21,46.845s31.21-23.422,31.21-46.845
			C62.419,13.982,48.446,0,31.21,0z"/>
	</g>
</g>
<g>
	<g>
		<g>
			<path fill="#262728" d="M44.277,31.145c-1.533,0-2.781-1.247-2.781-2.781c0-1.534,1.248-2.781,2.781-2.781
				c1.533,0,2.781,1.247,2.781,2.781C47.058,29.897,45.81,31.145,44.277,31.145z"/>
		</g>
	</g>
	<path fill="#262728" d="M18.385,31.145c-1.533,0-2.781-1.247-2.781-2.781c0-1.534,1.247-2.781,2.781-2.781
		c1.533,0,2.781,1.247,2.781,2.781C21.166,29.897,19.919,31.145,18.385,31.145z"/>
</g>
<g>
	<g>
		<path fill="#262728" d="M31.628,40.122c-5.751,0-9.889-3.395-10.062-3.539c-0.605-0.504-0.687-1.405-0.182-2.01
			c0.504-0.605,1.402-0.687,2.008-0.184c0.059,0.048,3.564,2.879,8.237,2.879c4.699,0,7.574-2.529,7.602-2.555
			c0.586-0.527,1.488-0.477,2.015,0.111c0.526,0.586,0.477,1.488-0.111,2.015C40.985,36.972,37.406,40.122,31.628,40.122z"/>
	</g>
</g>
</svg>
