<svg xmlns="http://www.w3.org/2000/svg" x="0px" y="0px"
width="100" height="100"
viewBox="0 0 100 100">
<path fill="#c7ede6" d="M86.151,56.832c0.3-0.616,0.566-1.264,0.796-1.943c2.633-7.77-1.349-17.078-9.733-19.325 c-0.906-11.384-8.906-19.193-17.941-20.526c-10.341-1.525-19.814,5.044-22.966,15.485c-3.799-1.346-7.501-1.182-10.99,0.857 c-1.583,0.732-3.031,1.812-4.33,3.233c-1.907,2.086-3.147,4.719-3.652,7.495c-0.748,0.118-1.483,0.236-2.176,0.484 c-4.04,1.449-6.589,4.431-7.288,8.923c-0.435,2.797,0.443,5.587,0.933,6.714c1.935,4.455,6.422,6.98,10.981,6.312 c0.227-0.033,0.557,0.069,0.752,0.233c0.241,7.12,3.698,13.417,8.884,17.014c8.321,5.772,19.027,3.994,25.781-3.921 c2.894,2.96,6.338,4.398,10.384,3.876c4.023-0.519,7.147-2.739,9.426-6.349c1.053,0.283,2.051,0.691,3.083,0.804 c4.042,0.442,7.324-1.165,9.732-4.8c0.922-1.391,1.794-3.194,1.794-6.354C89.621,61.789,88.327,58.821,86.151,56.832z"></path><path fill="#fdfcef" d="M71.423,39.434c-1.808-0.119-3.365,1.13-3.476,2.789c-0.014,0.206-0.005,0.409,0.025,0.606 c-0.349-0.394-0.865-0.661-1.458-0.7c-1.085-0.071-2.022,0.645-2.158,1.62c-0.197-0.054-0.403-0.09-0.616-0.104 c-1.582-0.104-2.944,0.989-3.042,2.441"></path><path fill="#472b29" d="M60.699,46.336c-0.006,0-0.012,0-0.017,0c-0.138-0.009-0.242-0.128-0.233-0.266 c0.106-1.587,1.585-2.783,3.308-2.674c0.136,0.009,0.272,0.027,0.409,0.053c0.273-0.968,1.262-1.639,2.366-1.568 c0.425,0.028,0.823,0.161,1.163,0.382c0.001-0.019,0.002-0.037,0.003-0.056c0.121-1.793,1.8-3.145,3.742-3.022 c0.138,0.009,0.242,0.128,0.233,0.266c-0.009,0.137-0.118,0.245-0.266,0.233c-1.671-0.107-3.108,1.038-3.21,2.557 c-0.013,0.184-0.005,0.37,0.023,0.551c0.017,0.11-0.041,0.217-0.141,0.265c-0.098,0.046-0.219,0.022-0.293-0.061 c-0.323-0.364-0.78-0.583-1.288-0.617c-0.936-0.064-1.775,0.555-1.894,1.405c-0.01,0.071-0.05,0.134-0.11,0.174 s-0.133,0.051-0.204,0.033c-0.188-0.051-0.379-0.084-0.567-0.096c-1.43-0.09-2.688,0.896-2.776,2.208 C60.939,46.234,60.829,46.336,60.699,46.336z"></path><path fill="#fdfcef" d="M72.748,40.049c0,0,11.691,0,11.762,0c2.7,0,4.888-2.189,4.888-4.889 c0-2.355-1.666-4.321-3.884-4.784c0.026-0.206,0.043-0.415,0.043-0.628c0-2.796-2.267-5.063-5.063-5.063 c-1.651,0-3.113,0.794-4.037,2.017c-0.236-3.113-3.017-5.514-6.27-5.116c-2.379,0.291-4.346,2.13-4.784,4.486 c-0.14,0.756-0.126,1.489,0.014,2.177c-0.638-0.687-1.546-1.119-2.557-1.119c-1.85,0-3.361,1.441-3.48,3.261 c-0.84-0.186-1.754-0.174-2.717,0.188c-1.84,0.691-3.15,2.423-3.227,4.387c-0.109,2.789,2.12,5.085,4.885,5.085 c0.21,0,0.948,0,1.118,0h10.152"></path><path fill="#472b29" d="M84.51,40.549H72.748c-0.276,0-0.5-0.224-0.5-0.5s0.224-0.5,0.5-0.5H84.51 c2.419,0,4.388-1.969,4.388-4.389c0-2.066-1.466-3.873-3.486-4.295c-0.255-0.053-0.426-0.293-0.394-0.551 c0.023-0.186,0.039-0.374,0.039-0.566c0-2.516-2.047-4.563-4.562-4.563c-1.438,0-2.765,0.663-3.638,1.818 c-0.125,0.166-0.339,0.24-0.54,0.178c-0.199-0.059-0.342-0.234-0.357-0.441c-0.104-1.377-0.779-2.671-1.85-3.549 c-1.083-0.887-2.454-1.283-3.861-1.109c-2.165,0.265-3.955,1.943-4.353,4.081c-0.124,0.667-0.12,1.335,0.013,1.986 c0.044,0.22-0.062,0.442-0.262,0.544c-0.2,0.102-0.443,0.06-0.595-0.104c-0.574-0.619-1.352-0.959-2.19-0.959 c-1.569,0-2.878,1.227-2.981,2.793c-0.01,0.146-0.082,0.28-0.199,0.367s-0.267,0.12-0.408,0.088 c-0.841-0.187-1.638-0.131-2.433,0.167c-1.669,0.626-2.835,2.209-2.903,3.938c-0.047,1.207,0.386,2.35,1.221,3.218 c0.835,0.869,1.959,1.347,3.164,1.347h11.268c0.276,0,0.5,0.224,0.5,0.5s-0.224,0.5-0.5,0.5H58.322 c-1.479,0-2.859-0.587-3.884-1.654s-1.558-2.469-1.5-3.95c0.083-2.126,1.51-4.069,3.55-4.836c0.801-0.3,1.628-0.4,2.468-0.298 c0.377-1.823,1.998-3.182,3.905-3.182c0.684,0,1.354,0.179,1.944,0.51c0-0.385,0.035-0.772,0.106-1.159 c0.477-2.562,2.621-4.573,5.215-4.891c1.676-0.205,3.32,0.266,4.616,1.328c1.004,0.823,1.716,1.951,2.038,3.193 c1.012-0.916,2.319-1.425,3.714-1.425c3.067,0,5.562,2.496,5.562,5.563c0,0.083-0.002,0.167-0.007,0.249 c2.254,0.672,3.848,2.777,3.848,5.164C89.898,38.132,87.481,40.549,84.51,40.549z"></path><path fill="#fdfcef" d="M86.489,30.949c-1.699-0.801-3.664-0.234-4.389,1.267c-0.09,0.186-0.157,0.379-0.201,0.574"></path><path fill="#472b29" d="M81.9,33.039c-0.018,0-0.037-0.002-0.056-0.006c-0.134-0.03-0.219-0.165-0.188-0.299 c0.049-0.216,0.123-0.426,0.219-0.626c0.783-1.623,2.901-2.242,4.721-1.384c0.125,0.059,0.179,0.208,0.12,0.333 c-0.059,0.126-0.209,0.178-0.333,0.12c-1.574-0.742-3.393-0.226-4.058,1.149c-0.08,0.166-0.141,0.341-0.182,0.521 C82.117,32.961,82.014,33.039,81.9,33.039z"></path><path fill="#fff" d="M14.397,49.041H4.366c-0.276,0-0.5-0.224-0.5-0.5s0.224-0.5,0.5-0.5h10.03 c0.276,0,0.5,0.224,0.5,0.5S14.673,49.041,14.397,49.041z M17.842,49.041h-1.446c-0.276,0-0.5-0.224-0.5-0.5s0.224-0.5,0.5-0.5 h1.446c0.276,0,0.5,0.224,0.5,0.5S18.118,49.041,17.842,49.041z M22.942,49.041h-2.546c-0.276,0-0.5-0.224-0.5-0.5 s0.224-0.5,0.5-0.5h2.546c0.276,0,0.5,0.224,0.5,0.5S23.219,49.041,22.942,49.041z M21.396,51.041H11.78 c-0.276,0-0.5-0.224-0.5-0.5s0.224-0.5,0.5-0.5h9.616c0.276,0,0.5,0.224,0.5,0.5S21.673,51.041,21.396,51.041z M9.976,51.041h-0.58 c-0.276,0-0.5-0.224-0.5-0.5s0.224-0.5,0.5-0.5h0.58c0.276,0,0.5,0.224,0.5,0.5S10.252,51.041,9.976,51.041z M6.852,51.041H5.396 c-0.276,0-0.5-0.224-0.5-0.5s0.224-0.5,0.5-0.5h1.456c0.276,0,0.5,0.224,0.5,0.5S7.128,51.041,6.852,51.041z M16.423,47.041h-5.027 c-0.276,0-0.5-0.224-0.5-0.5s0.224-0.5,0.5-0.5h5.027c0.276,0,0.5,0.224,0.5,0.5S16.7,47.041,16.423,47.041z M16.807,45.041H15.55 c-0.276,0-0.5-0.224-0.5-0.5s0.224-0.5,0.5-0.5h1.257c0.276,0,0.5,0.224,0.5,0.5S17.084,45.041,16.807,45.041z M13.539,53.041 H11.78c-0.276,0-0.5-0.224-0.5-0.5s0.224-0.5,0.5-0.5h1.759c0.276,0,0.5,0.224,0.5,0.5S13.815,53.041,13.539,53.041z"></path><path fill="#fff" d="M88.426,65.041h-10.03c-0.276,0-0.5-0.224-0.5-0.5s0.224-0.5,0.5-0.5h10.03 c0.276,0,0.5,0.224,0.5,0.5S88.703,65.041,88.426,65.041z M91.579,64.77h-1.446c-0.276,0-0.5-0.224-0.5-0.5s0.224-0.5,0.5-0.5 h1.446c0.276,0,0.5,0.224,0.5,0.5S91.855,64.77,91.579,64.77z M95.633,64.77h-2.546c-0.276,0-0.5-0.224-0.5-0.5s0.224-0.5,0.5-0.5 h2.546c0.276,0,0.5,0.224,0.5,0.5S95.91,64.77,95.633,64.77z M93.608,61.041h-9.616c-0.276,0-0.5-0.224-0.5-0.5s0.224-0.5,0.5-0.5 h9.616c0.276,0,0.5,0.224,0.5,0.5S93.884,61.041,93.608,61.041z M82.259,61.041h-0.58c-0.276,0-0.5-0.224-0.5-0.5 s0.224-0.5,0.5-0.5h0.58c0.276,0,0.5,0.224,0.5,0.5S82.536,61.041,82.259,61.041z M79.883,61.041h-1.457 c-0.276,0-0.5-0.224-0.5-0.5s0.224-0.5,0.5-0.5h1.457c0.276,0,0.5,0.224,0.5,0.5S80.16,61.041,79.883,61.041z M90.454,63.041 h-5.028c-0.276,0-0.5-0.224-0.5-0.5s0.224-0.5,0.5-0.5h5.028c0.276,0,0.5,0.224,0.5,0.5S90.73,63.041,90.454,63.041z"></path><path fill="#fff" d="M91.045,61.041h-1.257c-0.276,0-0.5-0.224-0.5-0.5s0.224-0.5,0.5-0.5h1.257 c0.276,0,0.5,0.224,0.5,0.5S91.321,61.041,91.045,61.041z M83.383,63.041H81.47c-0.3,0-0.544-0.224-0.544-0.5s0.244-0.5,0.544-0.5 h1.913c0.3,0,0.544,0.224,0.544,0.5C83.926,62.817,83.683,63.041,83.383,63.041z"></path><g><path fill="#18c9c4" d="M66.469,74.045H36.28c-3.529,0-6.416-2.887-6.416-6.416V37.442c0-3.529,2.887-6.416,6.416-6.416 h30.188c3.529,0,6.416,2.887,6.416,6.416V67.63C72.884,71.157,69.997,74.045,66.469,74.045z"></path><path fill="#472b29" d="M66.237,74.78H36.524c-4.162,0-7.547-3.386-7.547-7.547V37.52c0-4.162,3.386-7.547,7.547-7.547 h29.713c4.162,0,7.547,3.386,7.547,7.547v29.713C73.784,71.394,70.399,74.78,66.237,74.78z M36.524,31.373 c-3.39,0-6.147,2.757-6.147,6.147v29.713c0,3.39,2.757,6.147,6.147,6.147h29.713c3.39,0,6.147-2.757,6.147-6.147V37.52 c0-3.39-2.757-6.147-6.147-6.147L36.524,31.373z"></path><path fill="#472b29" d="M54.485,34.098h-6.242c-0.207,0-0.375-0.168-0.375-0.375s0.168-0.375,0.375-0.375h6.242 c0.207,0,0.375,0.168,0.375,0.375S54.692,34.098,54.485,34.098z"></path><path fill="#472b29" d="M45.49,34.098h-2.232c-0.207,0-0.375-0.168-0.375-0.375s0.168-0.375,0.375-0.375h2.232 c0.207,0,0.375,0.168,0.375,0.375S45.697,34.098,45.49,34.098z"></path><path fill="#472b29" d="M32.502,51.332c-0.207,0-0.375-0.168-0.375-0.375v-2.241c0-0.207,0.168-0.375,0.375-0.375 s0.375,0.168,0.375,0.375v2.241C32.877,51.164,32.709,51.332,32.502,51.332z"></path><path fill="#472b29" d="M65.247,71.33H37.502c-2.964,0-5.375-2.411-5.375-5.375V53.721c0-0.207,0.168-0.375,0.375-0.375 s0.375,0.168,0.375,0.375v12.234c0,2.55,2.075,4.625,4.625,4.625h27.745c2.55,0,4.625-2.075,4.625-4.625V38.723 c0-2.55-2.075-4.625-4.625-4.625H57.27c-0.207,0-0.375-0.168-0.375-0.375s0.168-0.375,0.375-0.375h7.978 c2.964,0,5.375,2.411,5.375,5.375v27.232C70.622,68.919,68.211,71.33,65.247,71.33z"></path></g><g><path fill="#fdfcef" d="M38.065,76.547c1.876,0,3.504,0,3.527,0c2.102,0,3.807-1.657,3.807-3.7 c0-1.783-1.297-3.271-3.024-3.622c0.02-0.156,0.034-0.314,0.034-0.475c0-2.117-1.765-3.833-3.942-3.833 c-1.285,0-2.424,0.601-3.143,1.527c-0.184-2.356-2.349-4.175-4.882-3.873c-1.852,0.221-3.384,1.612-3.725,3.396 c-0.11,0.572-0.098,1.127,0.011,1.648c-0.496-0.52-1.204-0.847-1.991-0.847c-1.441,0-2.617,1.091-2.71,2.468 c-0.655-0.141-1.366-0.132-2.115,0.142c-1.433,0.523-2.453,1.834-2.513,3.321c-0.085,2.111,1.651,3.849,3.804,3.849 c0.163,0,0.738,0,0.871,0h7.904 M31.612,76.547h0.359"></path><path fill="#472b29" d="M41.593,77.041h-3.528c-0.275,0-0.498-0.222-0.498-0.495s0.223-0.495,0.498-0.495h3.528 c1.824,0,3.308-1.438,3.308-3.206c0-1.508-1.104-2.828-2.625-3.137c-0.255-0.051-0.427-0.29-0.395-0.547 c0.018-0.136,0.029-0.273,0.029-0.413c0-1.841-1.545-3.338-3.444-3.338c-1.088,0-2.09,0.486-2.749,1.334 c-0.126,0.162-0.339,0.23-0.537,0.171c-0.197-0.058-0.338-0.232-0.354-0.435c-0.079-1.008-0.563-1.924-1.365-2.577 c-0.826-0.672-1.876-0.972-2.962-0.843c-1.64,0.195-2.995,1.427-3.295,2.997c-0.094,0.489-0.091,0.978,0.01,1.456 c0.045,0.217-0.06,0.436-0.257,0.538c-0.195,0.103-0.438,0.063-0.593-0.098c-0.426-0.447-1.005-0.693-1.629-0.693 c-1.165,0-2.137,0.882-2.213,2.007c-0.01,0.144-0.082,0.276-0.197,0.362c-0.116,0.087-0.263,0.119-0.405,0.088 c-0.636-0.138-1.236-0.097-1.838,0.123c-1.257,0.459-2.136,1.615-2.187,2.876c-0.035,0.866,0.282,1.69,0.892,2.321 c0.633,0.654,1.49,1.014,2.414,1.014h8.775c0.275,0,0.498,0.222,0.498,0.495s-0.223,0.495-0.498,0.495h-8.775 c-1.181,0-2.322-0.48-3.133-1.318c-0.799-0.826-1.213-1.908-1.168-3.045c0.066-1.657,1.206-3.17,2.838-3.766 c0.608-0.223,1.236-0.304,1.873-0.242c0.343-1.382,1.623-2.399,3.124-2.399c0.491,0,0.972,0.112,1.408,0.32 c0.009-0.24,0.037-0.479,0.083-0.719c0.381-1.988,2.089-3.549,4.154-3.794c1.357-0.159,2.675,0.216,3.712,1.061 c0.745,0.607,1.273,1.394,1.54,2.278c0.788-0.641,1.779-0.997,2.832-0.997c2.449,0,4.44,1.942,4.44,4.328 c0,0.034,0,0.067-0.001,0.101c1.757,0.549,2.992,2.165,2.992,3.996C45.896,75.159,43.966,77.041,41.593,77.041z M31.97,77.041 h-0.358c-0.275,0-0.498-0.222-0.498-0.495s0.223-0.495,0.498-0.495h0.358c0.275,0,0.498,0.222,0.498,0.495 S32.246,77.041,31.97,77.041z"></path><path fill="#472b29" d="M39.891,71.298c-0.018,0-0.037-0.002-0.055-0.006c-0.134-0.03-0.218-0.162-0.187-0.296 c0.038-0.165,0.095-0.325,0.168-0.474c0.603-1.211,2.265-1.658,3.708-0.996c0.125,0.057,0.179,0.205,0.122,0.329 c-0.058,0.124-0.206,0.178-0.331,0.121c-1.202-0.553-2.569-0.207-3.052,0.766c-0.058,0.115-0.101,0.238-0.13,0.364 C40.107,71.221,40.005,71.298,39.891,71.298z"></path><path fill="#472b29" d="M34.751,77.041h-1.103c-0.275,0-0.498-0.222-0.498-0.495s0.223-0.495,0.498-0.495h1.103 c0.275,0,0.498,0.222,0.498,0.495S35.026,77.041,34.751,77.041z"></path></g><g><path fill="#fff" d="M45.252,62.382c-1.378,0-2.889-0.423-4.194-1.688c-1.101-1.068-1.725-2.698-1.628-4.255 c0.071-1.143,0.559-2.808,2.475-4.252c0.31-0.231,0.749-0.169,0.98,0.139c0.232,0.309,0.171,0.747-0.138,0.98 c-1.181,0.889-1.845,2.002-1.92,3.22c-0.086,1.388,0.595,2.571,1.205,3.162c2.596,2.518,6.003,0.592,6.037,0.572 c0.334-0.194,0.763-0.08,0.957,0.255c0.193,0.334,0.08,0.763-0.255,0.956C48.004,61.915,46.701,62.382,45.252,62.382z"></path><path fill="#fff" d="M57.321,54.898c-0.23,0-0.457-0.114-0.59-0.322c-0.209-0.326-0.114-0.759,0.211-0.967 c2.198-1.409,3.46-4.603,2.935-7.428c-0.267-1.431-1.229-3.938-4.689-4.647c-2.334-0.477-5.401,0.608-6.247,2.988 c-0.077,0.215-0.253,0.38-0.474,0.44s-0.456,0.01-0.632-0.135c-1.381-1.141-2.904-1.604-4.292-1.299 c-1.131,0.247-2.093,0.987-2.573,1.979c-0.8,1.653-0.745,3.559,0.143,4.974c0.848,1.353,2.324,2.098,4.156,2.098 c0.387,0,0.7,0.313,0.7,0.7s-0.313,0.7-0.7,0.7c-2.297,0-4.245-1.004-5.342-2.754c-1.142-1.82-1.225-4.245-0.217-6.327 c0.666-1.377,1.988-2.4,3.535-2.738c1.57-0.34,3.231,0.032,4.762,1.052c1.449-2.555,4.833-3.59,7.462-3.048 c3.114,0.638,5.222,2.739,5.784,5.763c0.634,3.409-0.861,7.136-3.555,8.862C57.581,54.862,57.45,54.898,57.321,54.898z"></path><path fill="#fff" d="M53.54,64.99c-2.389,0-4.382-1.146-5.363-3.099c-0.935-1.859-0.736-4.071,0.506-5.635 c0.241-0.303,0.681-0.353,0.983-0.112s0.353,0.681,0.112,0.983c-0.904,1.138-1.042,2.761-0.352,4.135 c0.775,1.541,2.317,2.384,4.314,2.324c4.207-0.138,4.257-4.669,4.257-4.862c0-0.187,0.075-0.366,0.207-0.497 c0.133-0.131,0.339-0.197,0.499-0.204c0.02,0,0.038,0,0.057,0c1.401,0,2.66-0.452,3.46-1.245c0.701-0.695,1.057-1.63,1.057-2.778 c0-2.985-2.688-3.776-2.803-3.809c-0.371-0.104-0.589-0.489-0.486-0.86c0.102-0.371,0.482-0.589,0.856-0.49 c1.325,0.36,3.833,1.901,3.833,5.159c0,1.514-0.509,2.818-1.471,3.772c-0.954,0.945-2.301,1.513-3.843,1.629 c-0.222,2.186-1.563,5.453-5.578,5.584C53.704,64.988,53.621,64.99,53.54,64.99z"></path></g>
</svg>