<svg width="64" height="58" viewBox="0 0 64 58" fill="none" xmlns="http://www.w3.org/2000/svg">
<path d="M32.1005 4.79663C39.3074 4.79663 40.2067 4.82061 43.0343 4.94053C45.8592 5.06044 47.7823 5.46095 49.4746 6.05572C51.2253 6.66487 52.7001 7.48987 54.1749 8.8209C55.5237 10.0198 56.5674 11.47 57.2333 13.0706C57.8884 14.5983 58.3341 16.3394 58.4667 18.8936C58.5914 21.4501 58.6258 22.2631 58.6258 28.7792C58.6258 35.2953 58.5993 36.1083 58.4667 38.6648C58.3341 41.2189 57.8884 42.9577 57.2333 44.4878C56.5693 46.0893 55.5253 47.5398 54.1749 48.7375C52.8485 49.9566 51.2447 50.9001 49.4746 51.5027C47.7849 52.095 45.8592 52.4979 43.0343 52.6179C40.2067 52.7306 39.3074 52.7617 32.1005 52.7617C24.8936 52.7617 23.9944 52.7378 21.1668 52.6179C18.3418 52.4979 16.4187 52.095 14.7264 51.5027C12.9554 50.9018 11.3512 49.9581 10.0261 48.7375C8.67708 47.5388 7.63338 46.0885 6.96777 44.4878C6.30995 42.9601 5.86697 41.2189 5.73435 38.6648C5.60968 36.1083 5.5752 35.2953 5.5752 28.7792C5.5752 22.2631 5.60172 21.4501 5.73435 18.8936C5.86697 16.337 6.30995 14.6007 6.96777 13.0706C7.63153 11.469 8.67548 10.0184 10.0261 8.8209C11.3515 7.60075 12.9557 6.65703 14.7264 6.05572C16.4187 5.46095 18.3392 5.06044 21.1668 4.94053C23.9944 4.82781 24.8936 4.79663 32.1005 4.79663ZM32.1005 16.7879C28.583 16.7879 25.2096 18.0513 22.7224 20.3001C20.2352 22.5489 18.8379 25.5989 18.8379 28.7792C18.8379 31.9595 20.2352 35.0095 22.7224 37.2583C25.2096 39.5071 28.583 40.7705 32.1005 40.7705C35.618 40.7705 38.9914 39.5071 41.4786 37.2583C43.9659 35.0095 45.3632 31.9595 45.3632 28.7792C45.3632 25.5989 43.9659 22.5489 41.4786 20.3001C38.9914 18.0513 35.618 16.7879 32.1005 16.7879V16.7879ZM49.342 16.1883C49.342 15.3933 48.9926 14.6308 48.3708 14.0686C47.749 13.5064 46.9057 13.1905 46.0263 13.1905C45.1469 13.1905 44.3036 13.5064 43.6818 14.0686C43.06 14.6308 42.7106 15.3933 42.7106 16.1883C42.7106 16.9834 43.06 17.7459 43.6818 18.3081C44.3036 18.8703 45.1469 19.1862 46.0263 19.1862C46.9057 19.1862 47.749 18.8703 48.3708 18.3081C48.9926 17.7459 49.342 16.9834 49.342 16.1883ZM32.1005 21.5844C34.211 21.5844 36.235 22.3424 37.7274 23.6917C39.2197 25.041 40.0581 26.871 40.0581 28.7792C40.0581 30.6874 39.2197 32.5174 37.7274 33.8667C36.235 35.2159 34.211 35.974 32.1005 35.974C29.99 35.974 27.966 35.2159 26.4736 33.8667C24.9813 32.5174 24.1429 30.6874 24.1429 28.7792C24.1429 26.871 24.9813 25.041 26.4736 23.6917C27.966 22.3424 29.99 21.5844 32.1005 21.5844V21.5844Z" fill="currentColor"/>
</svg>
