<svg width="65" height="58" viewBox="0 0 65 58" fill="none" xmlns="http://www.w3.org/2000/svg">
<path d="M60.5266 14.3895C58.4842 15.2289 56.2826 15.7805 54.0014 16.0443C56.3356 14.7733 58.1393 12.7587 58.9881 10.3365C56.7865 11.5356 54.3462 12.375 51.7732 12.8546C49.6777 10.7921 46.7334 9.59302 43.3913 9.59302C37.1578 9.59302 32.0649 14.1977 32.0649 19.8815C32.0649 20.6969 32.171 21.4884 32.3567 22.2318C22.9137 21.8001 14.5052 17.6991 8.90834 11.4876C7.9269 12.9985 7.36987 14.7733 7.36987 16.6439C7.36987 20.2173 9.35927 23.383 12.4362 25.1817C10.5529 25.1817 8.80224 24.702 7.26377 23.9826V24.0545C7.26377 29.0429 11.1895 33.2158 16.3885 34.1512C14.7193 34.5642 12.967 34.6216 11.2691 34.319C11.9895 36.3635 13.4005 38.1524 15.3036 39.4343C17.2068 40.7163 19.5064 41.4267 21.8792 41.4658C17.857 44.3448 12.8712 45.901 7.74123 45.8786C6.83937 45.8786 5.93751 45.8307 5.03564 45.7347C10.0755 48.6606 16.0702 50.3634 22.4893 50.3634C43.3913 50.3634 54.8767 34.6788 54.8767 21.0807C54.8767 20.625 54.8767 20.1933 54.8502 19.7376C57.0783 18.2987 58.9881 16.476 60.5266 14.3895V14.3895Z" fill="currentColor"/>
</svg>
